<svg id="visual" viewBox="0 0 900 600" width="900" height="600" xmlns="http://www.w3.org/2000/svg" xmlns:xlink="http://www.w3.org/1999/xlink" version="1.1"><path d="M0 467L21.5 470.2C43 473.3 86 479.7 128.8 481.3C171.7 483 214.3 480 257.2 465C300 450 343 423 385.8 406.2C428.7 389.3 471.3 382.7 514.2 384.2C557 385.7 600 395.3 642.8 415.7C685.7 436 728.3 467 771.2 468.2C814 469.3 857 440.7 878.5 426.3L900 412L900 601L878.5 601C857 601 814 601 771.2 601C728.3 601 685.7 601 642.8 601C600 601 557 601 514.2 601C471.3 601 428.7 601 385.8 601C343 601 300 601 257.2 601C214.3 601 171.7 601 128.8 601C86 601 43 601 21.5 601L0 601Z" fill="#0066FF" stroke-linecap="round" stroke-linejoin="miter"></path></svg>